<svg id="Capa_1" data-name="Capa 1" xmlns="http://www.w3.org/2000/svg" viewBox="0 0 775.21 555.88"><defs><style>.cls-1{fill:#fff;}.cls-2{fill:none;stroke:#000;stroke-linecap:round;stroke-miterlimit:10;stroke-width:3px;}</style></defs><title>isotipo n</title><path d="M962,721.16a86.77,86.77,0,0,0-14.46-48L897,597l-18-16a8.32,8.32,0,0,0-9.58-.73l-64.5,38.61a23.25,23.25,0,0,0-9.77,11.64l-83.49,218.1a62.37,62.37,0,0,1-22.5,33.14L600,949.16a149.09,149.09,0,0,0-29.7,29.93l-56.92,111.36a6,6,0,0,0,5.23,8.72l372.15-2.3a2.75,2.75,0,0,1,2,.51c7.29,7.62-17.17,9-19.71,10.62l-134.56,24a1.49,1.49,0,0,0,.33,3l178.38-8.19a166.55,166.55,0,0,0,27.37-3.81l92.25-20.76a60.64,60.64,0,0,1,22.2-4.12l223.7-6a5.25,5.25,0,0,0,4.21-8.36l-45.28-57.32a148.74,148.74,0,0,1-12-17.58l-48-82.8a44.23,44.23,0,0,0-12.07-13.45l-56.18-41.29a75,75,0,0,1-26.87-37.1L1075,799l-10,13s32,105-35,178c0,0-19,83-104,57,0,0-42,23-69,6,0,0-2-69,80-74,0,0,54-45,58-90l-30,21Z" transform="translate(-512.7 -579.08)"/><path class="cls-1" d="M889.36,1007.19l.71-.65Z" transform="translate(-512.7 -579.08)"/><path class="cls-1" d="M887.71,1008.79l.74-.74Z" transform="translate(-512.7 -579.08)"/><path class="cls-1" d="M913.47,1040.45l-.6.37Z" transform="translate(-512.7 -579.08)"/><path class="cls-1" d="M915.3,1039.26l-.56.37Z" transform="translate(-512.7 -579.08)"/><path class="cls-1" d="M886.16,1010.42l.77-.82Z" transform="translate(-512.7 -579.08)"/><path class="cls-1" d="M908.31,1043.27q-1.42.68-2.85,1.27Q906.89,1043.95,908.31,1043.27Z" transform="translate(-512.7 -579.08)"/><path class="cls-1" d="M911.28,1041.74l-1,.52Z" transform="translate(-512.7 -579.08)"/><path class="cls-1" d="M884.7,1012.08l.81-.92Z" transform="translate(-512.7 -579.08)"/><path d="M887.08,1036.45c-4.31-5.23-5.83-12.54-4.89-21.2.68-.91,1.39-1.81,2.12-2.7-13.2,15.93-16.78,36.56-16.78,36.56s19.41,3.05,37.91-4.57C897.57,1044.1,891.23,1041.48,887.08,1036.45Z" transform="translate(-512.7 -579.08)"/><path class="cls-1" d="M914.28,994.18c1.39-.34,2.76-.63,4.11-.88C917,993.55,915.66,993.84,914.28,994.18Z" transform="translate(-512.7 -579.08)"/><path class="cls-1" d="M920.39,993c2-.31,3.91-.53,5.74-.69C924.3,992.42,922.38,992.64,920.39,993Z" transform="translate(-512.7 -579.08)"/><path class="cls-1" d="M909.59,1042.63l-1.15.57Z" transform="translate(-512.7 -579.08)"/><path class="cls-1" d="M899.6,999.79a57.2,57.2,0,0,1,8.38-3.73A57.2,57.2,0,0,0,899.6,999.79Z" transform="translate(-512.7 -579.08)"/><path class="cls-1" d="M899.6,999.79a50.82,50.82,0,0,0-6,3.88h0A50.82,50.82,0,0,1,899.6,999.79Z" transform="translate(-512.7 -579.08)"/><path class="cls-1" d="M891.17,1005.58l.6-.51Z" transform="translate(-512.7 -579.08)"/><path class="cls-1" d="M936.29,1013.06c-.57,1.23-1.19,2.47-1.85,3.73.66-1.26,1.28-2.5,1.85-3.73Z" transform="translate(-512.7 -579.08)"/><path class="cls-1" d="M914.74,1039.64l-.6.39.6-.39Zm-.6.39-.68.43.68-.43Z" transform="translate(-512.7 -579.08)"/><path class="cls-1" d="M917,1038c-.58.43-1.16.84-1.75,1.24.59-.4,1.17-.81,1.75-1.24Z" transform="translate(-512.7 -579.08)"/><path class="cls-1" d="M929.91,1024.34a64.88,64.88,0,0,1-4.2,5.5,64.88,64.88,0,0,0,4.2-5.5Z" transform="translate(-512.7 -579.08)"/><path class="cls-1" d="M912.87,1040.82l-.8.47.8-.47Zm-.8.47-.8.45.8-.45Z" transform="translate(-512.7 -579.08)"/><path class="cls-1" d="M910.3,1042.27l-.5.26.5-.26Zm-.5.26-.21.11.21-.11Z" transform="translate(-512.7 -579.08)"/><path class="cls-1" d="M889.36,1007.19l-.6.56.6-.56Zm-.6.56-.31.3.31-.3Z" transform="translate(-512.7 -579.08)"/><path class="cls-1" d="M887.71,1008.79l-.39.41.39-.41Zm-.39.41-.39.41.39-.41Z" transform="translate(-512.7 -579.08)"/><path class="cls-1" d="M891.17,1005.58l-.3.25.3-.25Zm-.3.25-.8.7.8-.7Z" transform="translate(-512.7 -579.08)"/><path class="cls-1" d="M893.54,1003.67l0,0,0,0Zm0,0c-.59.45-1.17.91-1.74,1.37.57-.47,1.15-.93,1.74-1.37Z" transform="translate(-512.7 -579.08)"/><path class="cls-1" d="M886.16,1010.42l-.17.18.17-.18Zm-.17.18-.49.55.49-.55Z" transform="translate(-512.7 -579.08)"/><polygon class="cls-1" points="392.76 465.46 392.75 465.46 392.76 465.46 392.76 465.46"/><path class="cls-1" d="M908.44,1043.21l-.06,0,.06,0Zm-.06,0-.07,0,.07,0Z" transform="translate(-512.7 -579.08)"/><path class="cls-1" d="M884.7,1012.08l-.19.23.19-.23Zm-.19.23-.19.23.19-.23Z" transform="translate(-512.7 -579.08)"/><path d="M933.29,993a75.81,75.81,0,0,1,8.58.46,93.33,93.33,0,0,1-6.49,19.2c-.58,1.25-1.2,2.49-1.82,3.68a75.38,75.38,0,0,1-4.47,7.45,64.15,64.15,0,0,1-4.13,5.41,53.09,53.09,0,0,1-8.51,8c-.49.37-1,.76-1.71,1.22l-.55.37-1.25.8-.22.14-.36.23q-.78.47-1.56.9l-1,.51-.69.36-1.13.56-.05,0-.07,0c-.85.41-1.72.79-2.6,1.16-7.73-.47-13.59-3.07-17.42-7.72-4-4.85-5.57-11.64-4.7-20.19.59-.79,1.22-1.59,1.93-2.44l.16-.2.22-.26.63-.73.16-.18.11-.12.54-.6.75-.8.77-.8.73-.72.89-.85.06-.05.63-.58c.35-.32.71-.63,1.08-.93l.22-.19.37-.32c.62-.51,1.18-1,1.75-1.38a50.06,50.06,0,0,1,5.92-3.8,56.41,56.41,0,0,1,8.24-3.67c2-.7,4.07-1.33,6.2-1.85,1.32-.32,2.68-.61,4-.87l2-.34c1.85-.29,3.76-.52,5.67-.68,2.33-.2,4.71-.3,7.08-.3m0-1c-2.15,0-4.56.08-7.16.3-1.83.15-3.76.38-5.74.69l-2,.34c-1.35.25-2.72.54-4.11.88a65.7,65.7,0,0,0-6.3,1.88,57.21,57.21,0,0,0-8.38,3.73,50.83,50.83,0,0,0-6,3.88h0c-.6.45-1.19.92-1.77,1.4l-.6.51c-.37.31-.74.63-1.1,1l-.71.65-.91.86-.74.74-.78.81-.77.82-.66.74-.81.92-.39.47c-.74.89-1.45,1.79-2.12,2.7-.94,8.67.58,16,4.89,21.2,4.15,5,10.49,7.65,18.36,8.09h0q1.43-.59,2.85-1.27l.13-.06,1.15-.57.71-.37,1-.52q.8-.45,1.6-.92l.6-.37,1.27-.82.56-.37c.59-.4,1.17-.81,1.75-1.24a54,54,0,0,0,8.67-8.19,64.88,64.88,0,0,0,4.2-5.5,76.18,76.18,0,0,0,4.53-7.55c.66-1.26,1.28-2.5,1.85-3.73a90.63,90.63,0,0,0,6.77-20.48,69.21,69.21,0,0,0-9.77-.61Z" transform="translate(-512.7 -579.08)"/><path class="cls-2" d="M1007.05,865.13s17.93,75.11-101.59,155.94" transform="translate(-512.7 -579.08)"/><path class="cls-2" d="M913,598l80.19,68.93a42.6,42.6,0,0,1,14,24.56l28.28,152.67L978,886.6l-2.58-175.66A66.68,66.68,0,0,0,962,671.72Z" transform="translate(-512.7 -579.08)"/><path d="M959.71,1003.31l-.81.93.81-.93Z" transform="translate(-512.7 -579.08)"/><path d="M982.52,1035.42q-1.4.67-2.8,1.25,1.41-.58,2.8-1.25Zm-2.8,1.25-.06,0,.06,0Z" transform="translate(-512.7 -579.08)"/><path d="M985.48,1033.9l-.53.28.53-.28Zm-.53.28-.45.24.45-.24Z" transform="translate(-512.7 -579.08)"/><path d="M983.8,1034.79l-.61.31.61-.31Zm-.61.31-.54.26.54-.26Z" transform="translate(-512.7 -579.08)"/><path d="M961.13,1001.76l-.52.55.52-.55Zm-.52.55-.25.27.25-.27Z" transform="translate(-512.7 -579.08)"/><path d="M962.66,1000.21l-.74.74.74-.74Z" transform="translate(-512.7 -579.08)"/><path d="M964.27,998.69l-.56.52.56-.52Zm-.56.52-.14.13.14-.13Z" transform="translate(-512.7 -579.08)"/><path d="M1005.36,1014.61l0,0,0,0Zm0,0c-.8,1.25-1.65,2.49-2.54,3.71.9-1.22,1.75-2.46,2.54-3.71Z" transform="translate(-512.7 -579.08)"/><path d="M1008.65,1008.94c-1,1.88-2.08,3.79-3.29,5.67,1.21-1.89,2.3-3.79,3.29-5.67Z" transform="translate(-512.7 -579.08)"/><path d="M1015.43,992.13c-.53,1.79-1.2,3.84-2,6,.82-2.21,1.48-4.25,2-6Zm-2,6c-.82,2.21-1.79,4.58-2.93,7,1.14-2.45,2.11-4.83,2.93-7Z" transform="translate(-512.7 -579.08)"/><path d="M1001.4,1020.19c-1,1.21-2,2.4-3,3.56,1.07-1.15,2.08-2.34,3-3.56Z" transform="translate(-512.7 -579.08)"/><path d="M987.67,1032.61l-.3.19.3-.19Zm-.3.19-.3.18.3-.18Z" transform="translate(-512.7 -579.08)"/><path d="M989.5,1031.42l-.28.19.28-.19Zm-.28.19-.28.19.28-.19Z" transform="translate(-512.7 -579.08)"/><path d="M966,997.23l-.6.51.6-.51Z" transform="translate(-512.7 -579.08)"/><path d="M961.29,1028.61c-4.31-5.23-5.83-12.54-4.89-21.2.68-.91,1.39-1.81,2.12-2.7-13.2,15.93-16.78,36.56-16.78,36.56s19.41,3.05,37.91-4.57C971.77,1036.26,965.44,1033.64,961.29,1028.61Z" transform="translate(-512.7 -579.08)"/><path d="M1017.27,984.74s-.05.31-.17.89c.12-.58.17-.89.17-.89Zm-.17.89h0Zm0,0h0Zm0,0c-.25,1.19-.77,3.49-1.66,6.5.89-3,1.41-5.31,1.66-6.5Z" transform="translate(-512.7 -579.08)"/><path d="M982.18,988.21a57.19,57.19,0,0,0-8.38,3.73,57.2,57.2,0,0,1,8.38-3.73Z" transform="translate(-512.7 -579.08)"/><path d="M973.8,991.94h0Zm0,0a50.85,50.85,0,0,0-6,3.87h0a50.85,50.85,0,0,1,6-3.87Z" transform="translate(-512.7 -579.08)"/><path d="M1012.47,984.27c1.13.07,2.09.15,2.84.23-.76-.08-1.71-.16-2.84-.23Z" transform="translate(-512.7 -579.08)"/><path d="M1015.31,984.5c1.26.13,2,.24,2,.24h0s-.7-.11-2-.24Z" transform="translate(-512.7 -579.08)"/><path d="M988.95,1031.79l-.59.38.59-.38Zm-.59.38-.69.43.69-.43Z" transform="translate(-512.7 -579.08)"/><path d="M987.08,1033l-.71.42.71-.42Zm-.71.42-.88.5.88-.5Z" transform="translate(-512.7 -579.08)"/><path d="M967.75,995.83q-.91.68-1.77,1.4c.58-.48,1.17-.94,1.77-1.4Z" transform="translate(-512.7 -579.08)"/><path d="M1008.59,984.13h0Zm.07,0c1.42,0,2.69.07,3.81.14-1.11-.07-2.39-.12-3.81-.14Z" transform="translate(-512.7 -579.08)"/><path d="M963.57,999.34l-.2.19.2-.19Zm-.2.19-.71.67.71-.67Z" transform="translate(-512.7 -579.08)"/><path d="M991.25,1030.18c-.58.43-1.16.84-1.75,1.24.59-.4,1.17-.81,1.75-1.24Z" transform="translate(-512.7 -579.08)"/><path d="M965.37,997.74l-.81.69.81-.69Zm-.81.69-.29.26.29-.26Z" transform="translate(-512.7 -579.08)"/><path d="M996.56,984.83c-1.29.17-2.62.38-4,.62,1.35-.25,2.67-.45,4-.62Z" transform="translate(-512.7 -579.08)"/><path d="M961.92,1000.94l-.59.61.59-.61Zm-.59.61-.19.2.19-.2Z" transform="translate(-512.7 -579.08)"/><path d="M958.91,1004.24l-.06.07.06-.07Zm-.06.07-.33.4.33-.4Z" transform="translate(-512.7 -579.08)"/><path d="M984.51,1034.42l-.35.19.35-.19Zm-.35.19-.35.18.35-.18Z" transform="translate(-512.7 -579.08)"/><polygon points="466.96 457.61 466.95 457.62 466.96 457.61 466.96 457.61"/><path d="M960.37,1002.58l-.25.28.25-.28Zm-.25.28-.4.45.4-.45Z" transform="translate(-512.7 -579.08)"/><path d="M1002.13,984.29c-1.18.07-2.4.17-3.66.31,1.26-.13,2.48-.24,3.66-.31Z" transform="translate(-512.7 -579.08)"/><path d="M1007.1,984.13c-1,0-2.1,0-3.24.08,1.13,0,2.21-.07,3.24-.08Z" transform="translate(-512.7 -579.08)"/><path d="M982.64,1035.37l-.12.06.12-.06Z" transform="translate(-512.7 -579.08)"/><path d="M1007.5,985.13h1.08c1.29,0,2.58.06,3.83.14,1,.06,1.91.13,2.8.22l.87.09c-.25,1.21-.76,3.42-1.6,6.26a94.18,94.18,0,0,1-4.89,12.94c-.58,1.25-1.19,2.49-1.82,3.68-1,1.94-2.12,3.83-3.25,5.6-.81,1.27-1.66,2.51-2.53,3.69-.45.62-.92,1.22-1.38,1.81-1,1.22-2,2.39-3,3.5a52,52,0,0,1-7,6.31c-.49.37-1,.76-1.71,1.22l-.55.37-1.25.8-.22.14-.36.22q-.78.47-1.56.9l-1,.51-.7.36-1.14.56-.05,0-.07,0c-.86.41-1.74.8-2.61,1.16-7.73-.47-13.59-3.07-17.42-7.72-4-4.85-5.57-11.64-4.7-20.19.59-.79,1.22-1.59,1.93-2.44l.17-.2.21-.26.63-.73.16-.18.11-.13.53-.59.75-.81.77-.8.73-.73.89-.85.07-.06.63-.58c.35-.32.71-.62,1.07-.93l.22-.19.37-.32c.61-.51,1.18-1,1.75-1.38a50.06,50.06,0,0,1,5.92-3.8,56.4,56.4,0,0,1,8.24-3.67,67.34,67.34,0,0,1,10.25-2.72c1.28-.24,2.6-.44,3.92-.62l1.89-.22c1.19-.13,2.41-.23,3.62-.31l1.71-.09c1.06,0,2.14-.07,3.2-.07h.39m0-1h-.4c-1,0-2.1,0-3.24.08l-1.73.09c-1.18.07-2.4.17-3.66.31l-1.92.23c-1.29.17-2.62.38-4,.62a68.2,68.2,0,0,0-10.41,2.76,57.19,57.19,0,0,0-8.38,3.73,50.86,50.86,0,0,0-6,3.88h0c-.6.45-1.19.92-1.77,1.4l-.6.51c-.37.31-.74.63-1.09.95l-.71.65-.91.86-.74.74-.78.81-.77.82-.65.74-.81.93-.39.47c-.73.89-1.45,1.79-2.12,2.7-.94,8.67.58,16,4.89,21.2,4.15,5,10.49,7.65,18.36,8.09h0q1.44-.59,2.86-1.27l.12-.06,1.16-.57.71-.37,1-.52q.8-.45,1.6-.92l.59-.37,1.27-.82.56-.37c.59-.4,1.17-.81,1.75-1.24a52.82,52.82,0,0,0,7.11-6.43c1.07-1.15,2.08-2.34,3-3.56q.72-.91,1.4-1.83c.91-1.23,1.76-2.48,2.56-3.74,1.21-1.89,2.3-3.79,3.29-5.67.66-1.26,1.28-2.5,1.85-3.73a95.73,95.73,0,0,0,4.94-13.08,72.15,72.15,0,0,0,1.83-7.4s-.7-.11-2-.24c-.76-.08-1.71-.16-2.84-.23s-2.43-.12-3.87-.14Z" transform="translate(-512.7 -579.08)"/><path class="cls-2" d="M1049.28,801.53s52.16,145.58-71.61,211.7" transform="translate(-512.7 -579.08)"/><path d="M949.28,621.74,1013,652.29a40.9,40.9,0,0,1,18.3,22l38.32,105.31L1038,814.88l-25.25-127.14a48.9,48.9,0,0,0-14.16-26l0,0,0,0-49.23-40m-7.19-4.55,55.79,45.33a47.79,47.79,0,0,1,13.86,25.42L1037.37,817l33.43-37.18L1032.28,674a42.12,42.12,0,0,0-18.78-22.59l-71.41-34.21Z" transform="translate(-512.7 -579.08)"/><path d="M978,887l57-43-7.91-45.24s-9.47,44.21-49.78,40.72Z" transform="translate(-512.7 -579.08)"/><path d="M1071,780l-34,37-6.7-35.64s23.35,5,27.53-37.19Z" transform="translate(-512.7 -579.08)"/></svg>