<svg id="Capa_1" data-name="Capa 1" xmlns="http://www.w3.org/2000/svg" viewBox="0 0 775.21 998.02"><defs><style>.cls-1{font-size:299px;font-family:Dubai-Bold, Dubai;font-weight:700;}.cls-2{letter-spacing:-0.04em;}.cls-3{fill:#0d3c2f;}.cls-4{fill:#1159ce;}.cls-5{fill:none;stroke:#000;stroke-linecap:round;stroke-miterlimit:10;stroke-width:3px;}</style></defs><title>Logo png</title><text class="cls-1" transform="translate(55.9 830.88)"><tspan class="cls-2">A</tspan><tspan x="188.08" y="0">vify</tspan></text><path class="cls-3" d="M960,600.16a86.77,86.77,0,0,0-14.46-48L895,476l-18-16a8.32,8.32,0,0,0-9.58-.73l-64.5,38.61a23.25,23.25,0,0,0-9.77,11.64l-83.49,218.1a62.37,62.37,0,0,1-22.5,33.14L598,828.16a149.09,149.09,0,0,0-29.7,29.93L511.36,969.45a6,6,0,0,0,5.23,8.72l372.15-2.3a2.75,2.75,0,0,1,2,.51C898,984,873.53,985.38,871,987l-134.56,24a1.49,1.49,0,0,0,.33,3l178.38-8.19a166.55,166.55,0,0,0,27.37-3.81l92.25-20.76a60.64,60.64,0,0,1,22.2-4.12l223.7-6a5.25,5.25,0,0,0,4.21-8.36l-45.28-57.32a148.74,148.74,0,0,1-12-17.58l-48-82.8a44.23,44.23,0,0,0-12.07-13.45l-56.18-41.29a75,75,0,0,1-26.87-37.1L1073,678l-10,13s32,105-35,178c0,0-19,83-104,57,0,0-42,23-69,6,0,0-2-69,80-74,0,0,54-45,58-90l-30,21Z" transform="translate(-510.7 -458.08)"/><path d="M915,917c-20.86,15.61-49.51,11.09-49.51,11.09s5.16-29.83,26-45.44,49.51-11.09,49.51-11.09S935.9,901.41,915,917Z" transform="translate(-510.7 -458.08)"/><path class="cls-4" d="M941.06,871.58s-28.65-4.52-49.51,11.09a56.15,56.15,0,0,0-11.36,11.58c-.94,8.67.58,16,4.89,21.2,4.15,5,10.49,7.65,18.36,8.09A52.91,52.91,0,0,0,915,917C935.9,901.41,941.06,871.58,941.06,871.58Z" transform="translate(-510.7 -458.08)"/><path class="cls-5" d="M1005.05,744.13S1023,819.24,903.47,900.07" transform="translate(-510.7 -458.08)"/><path class="cls-4" d="M973.91,589.93a67.5,67.5,0,0,0-13.51-39.51l-47-70.71,77.45,66.57a42.16,42.16,0,0,1,13.82,24.27l28.22,152.37-56.46,41.71Z" transform="translate(-510.7 -458.08)"/><path class="cls-4" d="M915.87,482.44l74.7,64.21a41.66,41.66,0,0,1,13.66,24l28.16,152.06L977,763.64l-2.55-173.71a68,68,0,0,0-13.59-39.78l-45-67.7M911,477l49,73.75a66.68,66.68,0,0,1,13.41,39.22L976,765.6l57.49-42.47-28.28-152.67a42.6,42.6,0,0,0-14-24.56L911,477Z" transform="translate(-510.7 -458.08)"/><path d="M989.25,909.18c-20.86,15.61-49.51,11.09-49.51,11.09s5.16-29.83,26-45.44,49.51-11.09,49.51-11.09S1010.11,893.57,989.25,909.18Z" transform="translate(-510.7 -458.08)"/><path class="cls-4" d="M1015.27,863.74s-28.65-4.52-49.51,11.09A56.15,56.15,0,0,0,954.4,886.4c-.94,8.67.58,16,4.89,21.2,4.15,5,10.49,7.65,18.36,8.09a52.91,52.91,0,0,0,11.6-6.52C1010.11,893.57,1015.27,863.74,1015.27,863.74Z" transform="translate(-510.7 -458.08)"/><path class="cls-5" d="M1047.28,680.53s52.16,145.58-71.61,211.7" transform="translate(-510.7 -458.08)"/><path class="cls-4" d="M1010.23,566.84a48.39,48.39,0,0,0-14-25.69l-52.54-42.69,67.6,32.38a41.39,41.39,0,0,1,18.53,22.31l38.42,105.59L1035.67,695Z" transform="translate(-510.7 -458.08)"/><path class="cls-4" d="M947.28,500.74,1011,531.29a40.91,40.91,0,0,1,18.3,22l38.32,105.31L1036,693.88l-25.25-127.14a48.9,48.9,0,0,0-14.16-26l0,0,0,0-49.23-40m-7.19-4.55,55.79,45.33a47.79,47.79,0,0,1,13.86,25.42L1035.37,696l33.43-37.18L1030.28,553a42.12,42.12,0,0,0-18.78-22.59l-71.41-34.21Z" transform="translate(-510.7 -458.08)"/><path d="M976,766l57-43-7.91-45.24s-9.47,44.21-49.78,40.72Z" transform="translate(-510.7 -458.08)"/><path d="M1069,659l-34,37-6.7-35.64s23.35,5,27.53-37.19Z" transform="translate(-510.7 -458.08)"/></svg>