<svg id="Capa_1" data-name="Capa 1" xmlns="http://www.w3.org/2000/svg" viewBox="0 0 775.21 555.88"><defs><style>.cls-1{fill:#0d3c2f;}.cls-2{fill:#1159ce;}.cls-3{fill:none;stroke:#000;stroke-linecap:round;stroke-miterlimit:10;stroke-width:3px;}</style></defs><title>isotipo</title><path class="cls-1" d="M962,764.16a86.77,86.77,0,0,0-14.46-48L897,640l-18-16a8.32,8.32,0,0,0-9.58-.73l-64.5,38.61a23.25,23.25,0,0,0-9.77,11.64l-83.49,218.1a62.37,62.37,0,0,1-22.5,33.14L600,992.16a149.09,149.09,0,0,0-29.7,29.93l-56.92,111.36a6,6,0,0,0,5.23,8.72l372.15-2.3a2.75,2.75,0,0,1,2,.51c7.29,7.62-17.17,9-19.71,10.62l-134.56,24a1.49,1.49,0,0,0,.33,3l178.38-8.19a166.55,166.55,0,0,0,27.37-3.81l92.25-20.76a60.64,60.64,0,0,1,22.2-4.12l223.7-6a5.25,5.25,0,0,0,4.21-8.36l-45.28-57.32a148.74,148.74,0,0,1-12-17.58l-48-82.8a44.23,44.23,0,0,0-12.07-13.45l-56.18-41.29a75,75,0,0,1-26.87-37.1L1075,842l-10,13s32,105-35,178c0,0-19,83-104,57,0,0-42,23-69,6,0,0-2-69,80-74,0,0,54-45,58-90l-30,21Z" transform="translate(-512.7 -622.08)"/><path d="M917,1081c-20.86,15.61-49.51,11.09-49.51,11.09s5.16-29.83,26-45.44,49.51-11.09,49.51-11.09S937.9,1065.41,917,1081Z" transform="translate(-512.7 -622.08)"/><path class="cls-2" d="M943.06,1035.58s-28.65-4.52-49.51,11.09a56.15,56.15,0,0,0-11.36,11.58c-.94,8.67.58,16,4.89,21.2,4.15,5,10.49,7.65,18.36,8.09A52.91,52.91,0,0,0,917,1081C937.9,1065.41,943.06,1035.58,943.06,1035.58Z" transform="translate(-512.7 -622.08)"/><path class="cls-3" d="M1007.05,908.13s17.93,75.11-101.59,155.94" transform="translate(-512.7 -622.08)"/><path class="cls-2" d="M975.91,753.93a67.5,67.5,0,0,0-13.51-39.51l-47-70.71,77.45,66.57a42.16,42.16,0,0,1,13.82,24.27l28.22,152.37-56.46,41.71Z" transform="translate(-512.7 -622.08)"/><path class="cls-2" d="M917.87,646.44l74.7,64.21a41.66,41.66,0,0,1,13.66,24l28.16,152.06L979,927.64l-2.55-173.71a68,68,0,0,0-13.59-39.78l-45-67.7M913,641l49,73.75a66.68,66.68,0,0,1,13.41,39.22L978,929.6l57.49-42.47-28.28-152.67a42.6,42.6,0,0,0-14-24.56L913,641Z" transform="translate(-512.7 -622.08)"/><path d="M991.25,1073.18c-20.86,15.61-49.51,11.09-49.51,11.09s5.16-29.83,26-45.44,49.51-11.09,49.51-11.09S1012.11,1057.57,991.25,1073.18Z" transform="translate(-512.7 -622.08)"/><path class="cls-2" d="M1017.27,1027.74s-28.65-4.52-49.51,11.09a56.15,56.15,0,0,0-11.36,11.58c-.94,8.67.58,16,4.89,21.2,4.15,5,10.49,7.65,18.36,8.09a52.91,52.91,0,0,0,11.6-6.52C1012.11,1057.57,1017.27,1027.74,1017.27,1027.74Z" transform="translate(-512.7 -622.08)"/><path class="cls-3" d="M1049.28,844.53s52.16,145.58-71.61,211.7" transform="translate(-512.7 -622.08)"/><path class="cls-2" d="M1012.23,730.84a48.39,48.39,0,0,0-14-25.69l-52.54-42.69,67.6,32.38a41.39,41.39,0,0,1,18.53,22.31l38.42,105.59L1037.67,859Z" transform="translate(-512.7 -622.08)"/><path class="cls-2" d="M949.28,664.74,1013,695.29a40.91,40.91,0,0,1,18.3,22l38.32,105.31L1038,857.88l-25.25-127.14a48.9,48.9,0,0,0-14.16-26l0,0,0,0-49.23-40m-7.19-4.55,55.79,45.33a47.79,47.79,0,0,1,13.86,25.42L1037.37,860l33.43-37.18L1032.28,717a42.12,42.12,0,0,0-18.78-22.59l-71.41-34.21Z" transform="translate(-512.7 -622.08)"/><path d="M978,930l57-43-7.91-45.24s-9.47,44.21-49.78,40.72Z" transform="translate(-512.7 -622.08)"/><path d="M1071,823l-34,37-6.7-35.64s23.35,5,27.53-37.19Z" transform="translate(-512.7 -622.08)"/></svg>