<svg id="Capa_1" data-name="Capa 1" xmlns="http://www.w3.org/2000/svg" viewBox="0 0 775.21 998.02"><defs><style>.cls-1{font-size:299px;font-family:Dubai-Bold, Dubai;font-weight:700;}.cls-1,.cls-3{fill:#fff;}.cls-2{letter-spacing:-0.04em;}.cls-4{fill:none;stroke:#fff;stroke-linecap:round;stroke-miterlimit:10;stroke-width:3px;}</style></defs><title>Logo png b</title><text class="cls-1" transform="translate(55.9 830.88)"><tspan class="cls-2">A</tspan><tspan x="188.08" y="0">vify</tspan></text><path class="cls-3" d="M962,600.16a86.77,86.77,0,0,0-14.46-48L897,476l-18-16a8.32,8.32,0,0,0-9.58-.73l-64.5,38.61a23.25,23.25,0,0,0-9.77,11.64l-83.49,218.1a62.37,62.37,0,0,1-22.5,33.14L600,828.16a149.09,149.09,0,0,0-29.7,29.93L513.36,969.45a6,6,0,0,0,5.23,8.72l372.15-2.3a2.75,2.75,0,0,1,2,.51C900,984,875.53,985.38,873,987l-134.56,24a1.49,1.49,0,0,0,.33,3l178.38-8.19a166.55,166.55,0,0,0,27.37-3.81l92.25-20.76a60.64,60.64,0,0,1,22.2-4.12l223.7-6a5.25,5.25,0,0,0,4.21-8.36l-45.28-57.32a148.74,148.74,0,0,1-12-17.58l-48-82.8a44.23,44.23,0,0,0-12.07-13.45l-56.18-41.29a75,75,0,0,1-26.87-37.1L1075,678l-10,13s32,105-35,178c0,0-19,83-104,57,0,0-42,23-69,6,0,0-2-69,80-74,0,0,54-45,58-90l-30,21Z" transform="translate(-512.7 -458.08)"/><path class="cls-3" d="M889.36,886.19l.71-.65Z" transform="translate(-512.7 -458.08)"/><path class="cls-3" d="M887.71,887.79l.74-.74Z" transform="translate(-512.7 -458.08)"/><path class="cls-3" d="M913.47,919.45l-.6.37Z" transform="translate(-512.7 -458.08)"/><path class="cls-3" d="M915.3,918.26l-.56.37Z" transform="translate(-512.7 -458.08)"/><path class="cls-3" d="M886.16,889.42l.77-.82Z" transform="translate(-512.7 -458.08)"/><path class="cls-3" d="M908.31,922.27q-1.42.68-2.85,1.27Q906.89,922.95,908.31,922.27Z" transform="translate(-512.7 -458.08)"/><path class="cls-3" d="M911.28,920.74l-1,.52Z" transform="translate(-512.7 -458.08)"/><path class="cls-3" d="M884.7,891.08l.81-.92Z" transform="translate(-512.7 -458.08)"/><path class="cls-3" d="M887.08,915.45c-4.31-5.23-5.83-12.54-4.89-21.2.68-.91,1.39-1.81,2.12-2.7-13.2,15.93-16.78,36.56-16.78,36.56s19.41,3.05,37.91-4.57C897.57,923.1,891.23,920.48,887.08,915.45Z" transform="translate(-512.7 -458.08)"/><path class="cls-3" d="M914.28,873.18c1.39-.34,2.76-.63,4.11-.88C917,872.55,915.66,872.84,914.28,873.18Z" transform="translate(-512.7 -458.08)"/><path class="cls-3" d="M920.39,872c2-.31,3.91-.53,5.74-.69C924.3,871.42,922.38,871.64,920.39,872Z" transform="translate(-512.7 -458.08)"/><path class="cls-3" d="M909.59,921.63l-1.15.57Z" transform="translate(-512.7 -458.08)"/><path class="cls-3" d="M899.6,878.79a57.2,57.2,0,0,1,8.38-3.73A57.2,57.2,0,0,0,899.6,878.79Z" transform="translate(-512.7 -458.08)"/><path class="cls-3" d="M899.6,878.79a50.82,50.82,0,0,0-6,3.88h0A50.82,50.82,0,0,1,899.6,878.79Z" transform="translate(-512.7 -458.08)"/><path class="cls-3" d="M891.17,884.58l.6-.51Z" transform="translate(-512.7 -458.08)"/><path class="cls-3" d="M936.29,892.06c-.57,1.23-1.19,2.47-1.85,3.73.66-1.26,1.28-2.5,1.85-3.73Z" transform="translate(-512.7 -458.08)"/><path class="cls-3" d="M914.74,918.64l-.6.39.6-.39Zm-.6.39-.67.42.67-.42Z" transform="translate(-512.7 -458.08)"/><path class="cls-3" d="M917,917c-.58.43-1.16.84-1.75,1.24.59-.4,1.17-.81,1.75-1.24Z" transform="translate(-512.7 -458.08)"/><path class="cls-3" d="M929.91,903.34a64.91,64.91,0,0,1-4.2,5.5,64.91,64.91,0,0,0,4.2-5.5Z" transform="translate(-512.7 -458.08)"/><path class="cls-3" d="M912.87,919.82l-.8.47.8-.47Zm-.8.47-.8.45.8-.45Z" transform="translate(-512.7 -458.08)"/><path class="cls-3" d="M910.3,921.27l-.43.22.43-.22Zm-.43.22-.28.15.28-.15Z" transform="translate(-512.7 -458.08)"/><path class="cls-3" d="M889.36,886.19l-.5.47.5-.47Zm-.5.47-.4.39.4-.39Z" transform="translate(-512.7 -458.08)"/><path class="cls-3" d="M887.71,887.79l-.39.41.39-.41Zm-.39.41-.39.41.39-.41Z" transform="translate(-512.7 -458.08)"/><path class="cls-3" d="M891.17,884.58l-.3.25.3-.25Zm-.3.25-.8.7.8-.7Z" transform="translate(-512.7 -458.08)"/><path class="cls-3" d="M893.54,882.67h0Zm0,0q-.9.67-1.76,1.39c.57-.47,1.16-.94,1.76-1.39Z" transform="translate(-512.7 -458.08)"/><path class="cls-3" d="M886.16,889.42l-.17.18.17-.18Zm-.17.18-.49.55.49-.55Z" transform="translate(-512.7 -458.08)"/><polygon class="cls-3" points="392.76 465.46 392.75 465.46 392.75 465.46 392.76 465.46 392.76 465.46"/><path class="cls-3" d="M908.44,922.21l-.11,0,.11,0Zm-.11,0h0Zm0,0h0Zm0,0h0Z" transform="translate(-512.7 -458.08)"/><path class="cls-3" d="M884.7,891.08l-.19.23.19-.23Zm-.19.23-.19.23.19-.23Z" transform="translate(-512.7 -458.08)"/><path class="cls-3" d="M933.29,872a75.82,75.82,0,0,1,8.58.46,93.34,93.34,0,0,1-6.49,19.2c-.58,1.25-1.2,2.49-1.82,3.68a75.42,75.42,0,0,1-4.47,7.45,64.14,64.14,0,0,1-4.13,5.41,53.11,53.11,0,0,1-8.51,8c-.5.37-1,.76-1.71,1.22l-.55.37-1.25.8-.22.14-.37.23q-.78.47-1.56.9l-1,.51-.69.36-1.13.56-.05,0-.07,0c-.86.41-1.72.8-2.6,1.16-7.73-.47-13.59-3.07-17.42-7.72-4-4.85-5.57-11.64-4.7-20.19.59-.79,1.22-1.59,1.93-2.44l.16-.2.22-.26.64-.73.16-.18.11-.12.53-.6.75-.8.77-.8.73-.72.89-.85.06-.05.64-.59c.35-.32.71-.63,1.08-.93l.22-.19.37-.32c.62-.51,1.18-1,1.75-1.38a50,50,0,0,1,5.92-3.8,56.39,56.39,0,0,1,8.24-3.67c2-.7,4.07-1.33,6.2-1.85,1.32-.32,2.68-.61,4-.87l2-.34c1.85-.29,3.76-.52,5.67-.68,2.33-.2,4.71-.3,7.08-.3m0-1c-2.15,0-4.56.08-7.16.3-1.83.15-3.76.38-5.74.69l-2,.34c-1.35.25-2.72.54-4.11.88a65.7,65.7,0,0,0-6.3,1.88,57.2,57.2,0,0,0-8.38,3.73,50.82,50.82,0,0,0-6,3.88h0c-.6.45-1.19.92-1.77,1.4l-.6.51c-.37.31-.74.63-1.1,1l-.71.65-.91.86-.74.74-.78.81-.77.82-.66.74-.81.92-.39.47c-.73.89-1.45,1.79-2.12,2.7-.94,8.67.58,16,4.89,21.2,4.15,5,10.49,7.65,18.36,8.09h0q1.43-.59,2.85-1.27l.13-.06,1.15-.57.71-.37,1-.52q.8-.45,1.6-.92l.6-.37,1.27-.82.56-.37c.59-.4,1.17-.81,1.75-1.24a54,54,0,0,0,8.67-8.19,64.91,64.91,0,0,0,4.2-5.5,76.2,76.2,0,0,0,4.53-7.55c.66-1.26,1.28-2.5,1.85-3.73a90.63,90.63,0,0,0,6.77-20.48,69.21,69.21,0,0,0-9.77-.61Z" transform="translate(-512.7 -458.08)"/><path class="cls-4" d="M1007.05,744.13S1025,819.24,905.47,900.07" transform="translate(-512.7 -458.08)"/><path class="cls-3" d="M917.87,482.44l74.7,64.21a41.66,41.66,0,0,1,13.66,24l28.16,152.06L979,763.64l-2.55-173.71a68,68,0,0,0-13.59-39.78l-45-67.7M913,477l49,73.75a66.68,66.68,0,0,1,13.41,39.22L978,765.6l57.49-42.47-28.28-152.67a42.6,42.6,0,0,0-14-24.56L913,477Z" transform="translate(-512.7 -458.08)"/><path class="cls-3" d="M958.91,883.24l.81-.93Z" transform="translate(-512.7 -458.08)"/><path class="cls-3" d="M982.52,914.42q-1.42.68-2.86,1.27Q981.09,915.1,982.52,914.42Z" transform="translate(-512.7 -458.08)"/><path class="cls-3" d="M985.48,912.9l-1,.52Z" transform="translate(-512.7 -458.08)"/><path class="cls-3" d="M983.8,913.79l-1.16.57Z" transform="translate(-512.7 -458.08)"/><path class="cls-3" d="M960.37,881.58l.77-.82Z" transform="translate(-512.7 -458.08)"/><path class="cls-3" d="M961.92,879.94l.74-.74Z" transform="translate(-512.7 -458.08)"/><path class="cls-3" d="M963.57,878.34l.71-.65Z" transform="translate(-512.7 -458.08)"/><path class="cls-3" d="M1005.36,893.61c-.8,1.26-1.66,2.51-2.56,3.74C1003.7,896.12,1004.55,894.87,1005.36,893.61Z" transform="translate(-512.7 -458.08)"/><path class="cls-3" d="M1008.65,887.94c-1,1.88-2.08,3.79-3.29,5.67C1006.56,891.73,1007.66,889.82,1008.65,887.94Z" transform="translate(-512.7 -458.08)"/><path class="cls-3" d="M1015.43,871.13a95.75,95.75,0,0,1-4.94,13.08A95.75,95.75,0,0,0,1015.43,871.13Z" transform="translate(-512.7 -458.08)"/><path class="cls-3" d="M1001.4,899.19c-1,1.21-2,2.4-3,3.56C999.42,901.59,1000.44,900.4,1001.4,899.19Z" transform="translate(-512.7 -458.08)"/><path class="cls-3" d="M987.67,911.61l-.6.37Z" transform="translate(-512.7 -458.08)"/><path class="cls-3" d="M989.5,910.42l-.56.37Z" transform="translate(-512.7 -458.08)"/><path class="cls-3" d="M965.37,876.74l.6-.51Z" transform="translate(-512.7 -458.08)"/><path class="cls-3" d="M961.29,907.61c-4.31-5.23-5.83-12.54-4.89-21.2.68-.91,1.39-1.81,2.12-2.7-13.2,15.93-16.78,36.56-16.78,36.56s19.41,3.05,37.91-4.57C971.77,915.26,965.44,912.64,961.29,907.61Z" transform="translate(-512.7 -458.08)"/><path class="cls-3" d="M1015.43,871.13a72.12,72.12,0,0,0,1.83-7.4h0A72.11,72.11,0,0,1,1015.43,871.13Z" transform="translate(-512.7 -458.08)"/><path class="cls-3" d="M973.8,870.94a57.19,57.19,0,0,1,8.38-3.73A57.2,57.2,0,0,0,973.8,870.94Z" transform="translate(-512.7 -458.08)"/><path class="cls-3" d="M973.8,870.94a50.83,50.83,0,0,0-6,3.88h0A50.83,50.83,0,0,1,973.8,870.94Z" transform="translate(-512.7 -458.08)"/><path class="cls-3" d="M1012.47,863.27c1.13.07,2.09.15,2.84.23-.76-.08-1.71-.16-2.84-.23Z" transform="translate(-512.7 -458.08)"/><path class="cls-3" d="M1015.31,863.5c1.26.13,2,.24,2,.24h0s-.7-.11-2-.24Z" transform="translate(-512.7 -458.08)"/><path class="cls-3" d="M988.95,910.79l-.59.39.59-.39Zm-.59.39-.68.43.68-.43Z" transform="translate(-512.7 -458.08)"/><path class="cls-3" d="M987.08,912l-.8.47.8-.47Zm-.8.47-.8.45.8-.45Z" transform="translate(-512.7 -458.08)"/><path class="cls-3" d="M967.75,874.83q-.91.68-1.77,1.4c.58-.48,1.17-.94,1.77-1.4Z" transform="translate(-512.7 -458.08)"/><path class="cls-3" d="M1008.59,863.13h0Zm.07,0c1.42,0,2.69.07,3.81.14-1.11-.07-2.39-.12-3.81-.14Z" transform="translate(-512.7 -458.08)"/><path class="cls-3" d="M963.57,878.34l-.26.24.26-.24Zm-.26.24-.65.62.65-.62Z" transform="translate(-512.7 -458.08)"/><path class="cls-3" d="M991.25,909.18l-.09.06.09-.06Zm-.09.06c-.55.41-1.1.8-1.66,1.18.56-.38,1.11-.77,1.66-1.18Z" transform="translate(-512.7 -458.08)"/><path class="cls-3" d="M965.37,876.74l-.72.62.72-.62Zm-.72.62-.38.33.38-.33Z" transform="translate(-512.7 -458.08)"/><path class="cls-3" d="M996.56,863.83c-1.29.17-2.62.38-4,.62,1.35-.25,2.67-.45,4-.62Z" transform="translate(-512.7 -458.08)"/><path class="cls-3" d="M961.92,879.94l-.39.4.39-.4Zm-.39.4-.39.41.39-.41Z" transform="translate(-512.7 -458.08)"/><path class="cls-3" d="M958.91,883.24l-.2.24.2-.24Zm-.2.24-.19.23.19-.23Z" transform="translate(-512.7 -458.08)"/><path class="cls-3" d="M984.51,913.42l-.35.18.35-.18Zm-.35.18-.36.18.36-.18Z" transform="translate(-512.7 -458.08)"/><polygon class="cls-3" points="466.96 457.61 466.95 457.62 466.96 457.61 466.96 457.61"/><path class="cls-3" d="M960.37,881.58l-.25.28.25-.28Zm-.25.28-.4.45.4-.45Z" transform="translate(-512.7 -458.08)"/><path class="cls-3" d="M1002.13,863.29c-1.18.07-2.4.17-3.66.31,1.26-.13,2.48-.24,3.66-.31Z" transform="translate(-512.7 -458.08)"/><path class="cls-3" d="M1007.1,863.13c-1,0-2.1,0-3.23.08,1.13,0,2.21-.07,3.23-.08Z" transform="translate(-512.7 -458.08)"/><path class="cls-3" d="M982.64,914.37l-.12.06.12-.06Z" transform="translate(-512.7 -458.08)"/><path class="cls-3" d="M1007.5,864.13h1.08c1.29,0,2.58.06,3.83.14,1,.06,1.91.13,2.8.22l.87.09c-.25,1.21-.76,3.42-1.6,6.26a94.2,94.2,0,0,1-4.89,12.94c-.58,1.25-1.2,2.49-1.82,3.68-1,1.94-2.12,3.83-3.25,5.6-.81,1.27-1.66,2.51-2.53,3.69-.45.61-.91,1.22-1.38,1.81-1,1.22-2,2.39-3,3.5a52,52,0,0,1-7,6.31c-.49.37-1,.76-1.71,1.22l-.55.37-1.25.8-.22.14-.36.23q-.78.47-1.56.9l-1,.51-.69.36-1.14.56-.05,0-.07,0c-.86.41-1.74.8-2.61,1.16-7.73-.47-13.59-3.07-17.42-7.72-4-4.85-5.58-11.64-4.7-20.19.59-.79,1.22-1.59,1.93-2.44l.16-.2.22-.26.64-.73.16-.18.12-.14.52-.59.75-.81.77-.8.73-.73.89-.85.07-.06.63-.58c.35-.32.71-.62,1.07-.93l.22-.19.37-.32c.61-.51,1.18-1,1.75-1.38a50,50,0,0,1,5.92-3.8,56.39,56.39,0,0,1,8.24-3.67,67.34,67.34,0,0,1,10.25-2.72c1.28-.24,2.6-.44,3.92-.62l1.89-.22c1.19-.13,2.41-.23,3.62-.31l1.71-.09c1.06,0,2.14-.07,3.2-.07h.39m0-1h-.4c-1,0-2.1,0-3.23.08l-1.73.09c-1.18.07-2.4.17-3.66.31l-1.92.23c-1.29.17-2.62.38-4,.62a68.2,68.2,0,0,0-10.41,2.76,57.19,57.19,0,0,0-8.38,3.73,50.83,50.83,0,0,0-6,3.88h0c-.6.45-1.19.92-1.77,1.4l-.6.51c-.37.31-.74.63-1.09.95l-.71.65-.91.86-.74.74-.78.81-.77.82-.65.74-.81.93-.39.47c-.73.89-1.45,1.79-2.12,2.7-.94,8.67.58,16,4.89,21.2,4.15,5,10.49,7.65,18.36,8.09h0q1.44-.59,2.86-1.27l.12-.06,1.16-.57.71-.37,1-.52q.8-.45,1.6-.92l.6-.37,1.27-.82.56-.37c.59-.4,1.17-.81,1.75-1.24a52.83,52.83,0,0,0,7.11-6.43c1.07-1.15,2.08-2.34,3-3.56q.72-.91,1.4-1.83c.91-1.23,1.76-2.48,2.56-3.74,1.21-1.89,2.3-3.79,3.29-5.67.66-1.26,1.28-2.5,1.85-3.73a95.75,95.75,0,0,0,4.94-13.08,72.11,72.11,0,0,0,1.83-7.4s-.7-.11-2-.24c-.76-.08-1.71-.16-2.84-.23s-2.43-.12-3.87-.14Z" transform="translate(-512.7 -458.08)"/><path class="cls-4" d="M1049.28,680.53s52.16,145.58-71.61,211.7" transform="translate(-512.7 -458.08)"/><path class="cls-3" d="M949.28,500.74,1013,531.29a40.91,40.91,0,0,1,18.3,22l38.32,105.31L1038,693.88l-25.25-127.14a48.9,48.9,0,0,0-14.16-26l0,0,0,0-49.23-40m-7.19-4.55,55.79,45.33a47.79,47.79,0,0,1,13.86,25.42L1037.37,696l33.43-37.18L1032.28,553a42.12,42.12,0,0,0-18.78-22.59l-71.41-34.21Z" transform="translate(-512.7 -458.08)"/><path class="cls-3" d="M978,766l57-43-7.91-45.24s-9.47,44.21-49.78,40.72Z" transform="translate(-512.7 -458.08)"/><path class="cls-3" d="M1071,659l-34,37-6.7-35.64s23.35,5,27.53-37.19Z" transform="translate(-512.7 -458.08)"/></svg>